<svg width="746" height="542" viewBox="0 0 746 542" fill="none" xmlns="http://www.w3.org/2000/svg">
<path d="M0.999802 28C1.2998 27.6 1.6998 27.3 1.7998 26.9C5.1998 12.9 14.2998 4.8 27.9998 2.1C34.5998 0.8 41.4998 0.0999999 48.2998 0.0999999C161.3 -9.68575e-08 274.3 0 387.3 0C393.7 0 399.7 1.6 406.1 3.8C406.1 17.9 406.1 31.8 406.1 46C407.7 46 409 46 410.3 46C429.6 46 449 46 468.3 46.2C484.4 46.3 499.5 50.3 513.6 58C528.6 66.1 542 76.5 555.3 87C565.4 94.9 575.1 103.2 586.6 109.1C604.1 118.2 622.7 123.4 642.5 123.4C675 123.4 707.5 123.2 739.9 123C741.7 123 743.5 123 745.7 123C745.8 125.3 745.9 127.1 745.9 128.9C745.9 164.4 745.9 199.9 745.9 235.4C745.9 321.5 745.9 407.7 745.8 493.8C745.8 499.9 745 506.1 743.8 512.1C741.8 522.6 733.4 530.3 722.1 530.7C719.1 530.8 716.1 531.1 713.1 531.1C612.5 531.1 511.8 531.1 411.2 531.1C409.4 531.1 407.6 531.1 405.4 531.1C404.7 535.4 401.5 537.1 397.9 538.1C394.9 539 391.8 539.5 388.7 540.2C388.3 540.3 388.1 540.8 387.8 541.1C266.1 541.1 144.5 541.1 22.7998 541.1C8.89981 538 2.4998 528.5 0.799805 515.1C0.999805 352.7 0.999802 190.3 0.999802 28Z" fill="#050505"/>
<path d="M344 519C341.9 519 340 519 338 519C243 519 148 519 53.0998 519C49.3998 519 45.7998 518.9 42.0998 519.3C33.7998 520.1 28.0998 513.8 27.0998 505.9C26.7998 503.9 26.8998 501.9 26.8998 499.9C26.8998 497.7 27.0998 495.6 27.0998 493.4C27.0998 374.6 27.0998 255.8 27.0998 137C27.0998 133.5 26.8998 130 26.8998 126.5C26.8998 124.2 26.8998 121.8 27.3998 119.6C28.1998 116.1 29.7998 115.1 33.4998 115C37.1998 114.9 40.7998 115 44.4998 115C69.1998 115 93.7998 114.9 118.5 115.2C134.3 115.3 149.4 111.8 164 106.1C178.6 100.4 191.1 91.5 203 81.7C217.7 69.5 232.8 57.9 249 47.6C255 43.8 261.3 40.3 268.4 38.8C270 38.5 271.6 38.1 273.3 38.1C294.6 38.1 316 38.1 337.3 38.1C342.8 38.1 345.6 40.6 346.2 46C346.4 47.8 346.3 49.7 346.3 51.5C346.2 105.5 346.2 159.5 346.1 213.5C345.9 281.5 345.5 349.4 345.2 417.4C345.1 433.1 345.2 448.7 345.1 464.4C345 481.9 344.7 499.3 344.4 516.8C344.2 517.2 344.1 517.9 344 519Z" fill="#F23838"/>
<path d="M404 477.6C393.9 470.1 369.3 469.9 357 476.5C357 474.7 357 473 357 471.4C357 343.6 357 215.8 356.9 88C356.9 83.8 358.1 81.3 362 80.1C364.8 79.2 367.7 78.2 370.6 78C376.9 77.7 383.2 77.9 389.6 77.9C393.7 77.9 397.3 79.8 400.8 81.7C403.3 83.1 403.6 85.6 404.1 88C404.3 89.1 404.1 90.3 404.1 91.5C404.1 218.3 404.1 345.1 404.1 471.9C404 473.8 404 475.6 404 477.6Z" fill="#E23434"/>
<path d="M403.9 5.5C403.9 12.7 403.9 19.8 403.9 26.9C400.3 25.5 397 23.7 393.6 23.1C388.1 22.2 382.4 21.9 376.8 21.9C351.8 21.8 326.8 21.8 301.8 22C293.7 22.1 285.6 22.7 277.5 23.8C264.9 25.6 253.3 30.6 242.4 37C229.1 45 216.8 54.5 204.7 64C195.4 71.3 186.3 78.8 175.9 84.4C168.3 88.5 160.4 92 152 94.2C150.2 94.7 148.1 94.3 146.6 95.2C144.8 96.1 143.3 97.5 141.2 96.1C138.9 99.5 135.2 96.6 132.3 98.3C130.4 99.4 127.7 99.1 125.3 99.1C120.9 99.1 116.6 99.3 112.2 99.3C107.7 99.2 103.2 99.1 98.6996 99.1C75.9996 99.1 53.3996 99.1 30.6996 99.1C29.3996 99.1 27.9996 99.2 26.6996 99C23.2996 98.6 21.9996 97.3 21.9996 93.9C21.9996 71.4 21.5996 48.9 22.0996 26.4C22.3996 14.5 28.4996 5.8 41.9996 3C44.8996 2.4 47.8996 2.1 50.8996 2.1C162.4 2.1 273.9 2.1 385.4 2C391.7 2 397.8 3.2 403.9 5.5Z" fill="#F23838"/>
<path d="M406.2 529C406.2 368.4 406.2 208.5 406.2 48.2C407.4 48.1 408.6 48 409.7 48C429.9 48 450 47.7 470.2 48.2C486.7 48.6 502 53.8 516.4 61.8C530.1 69.5 542.4 79.1 554.5 88.9C566.4 98.5 578.4 107.9 592.5 114.2C603.3 119 614.5 122.3 626.2 124.1C634.8 125.4 643.4 126.1 652 125.6C681.8 124 711.6 125.3 741.4 124.9C742 124.9 742.7 125 743.7 125C743.8 126.5 743.9 127.9 743.9 129.4C743.9 251.1 744 372.7 743.8 494.4C743.8 501.3 743.4 508.4 740.8 514.9C737.6 522.8 732.2 527.8 723.3 528.1C717.5 528.3 711.7 528.8 705.9 528.8C608.1 528.8 510.2 528.8 412.4 528.8C410.5 529 408.6 529 406.2 529Z" fill="#F23838"/>
<path d="M345 38.1C348.3 38.1 351.3 38.1 355 38.1C355 78.9 355 119.6 355 160.4C355 201.6 355 242.7 355 283.9C355 324.9 355 365.9 355 406.9C355 447.7 354.9 488.5 355 529.9C353.1 530 351.5 530.1 350 530.1C290.2 530 230.3 530.1 170.5 529.9C127 529.8 83.6 529.3 40.1 529.1C33.7 529.1 28.1 527 24 522.4C21 519.1 18.7 514.9 18.1 510.2C17.5 505.4 17 500.6 17 495.8C16.9 370.5 17 245.2 17 119.8C17 118.3 17 116.9 17 115.2C20.5 115.2 23.6 115.2 26.8 115.2C24.8 119.7 23.4 124.2 24.9 129.2C25.3 130.4 25 131.8 25 133.2C25 253.7 25 374.2 25 494.7C25 498.5 24.7 502.3 25.1 506C26.2 516.9 34.4 522.7 45.3 521.7C47.6 521.5 49.9 521.1 52.2 521.1C148.4 521.1 244.5 521.1 340.7 521.1C342.5 521.1 344.3 521.1 346.6 521.1C346.7 519.5 346.8 518 346.8 516.6C346.9 482.9 347 449.3 347 415.6C347.1 373.8 347 331.9 347.1 290.1C347.3 222 347.7 153.8 348 85.7C348 74.2 348 62.7 348.2 51.2C348.2 46.6 347.9 42.2 345 38.1Z" fill="#F23838"/>
<path d="M6.39997 523.2C4.29997 518.1 2.89997 513.6 2.89997 508.7C2.89997 504.5 2.89997 500.4 2.89997 496.2C2.89997 346.2 2.89997 196.2 2.89997 46.2C2.89997 42.4 2.69997 38.5 2.79997 34.7C3.09997 21.3 9.19997 11.6 21.5 6.19998C25.2 4.59997 29.3 3.89998 33.4 3.09998C28 6.29998 24.2 10.6 22.2 16.3C21.1 19.5 20 23 20 26.3C19.8 49 19.9 71.6 19.9 94.3C19.9 95.6 20.1 96.9 20.2 98.4C16.1 99.7 14.8 102.9 14.8 107.4C15 147.7 15 187.8 15 228C15 315.3 15 402.7 15 490C15 505.4 15 505.4 8.19997 519.4C7.69997 520.5 7.19997 521.5 6.39997 523.2Z" fill="#A31111"/>
<path d="M362.7 538.8C255.3 538.8 147.4 538.8 38.5 538.8C39.9 535.9 41.2 533.6 42.5 531C44.3 531 46 531 47.6 531C84.1 531 120.6 530.4 157.1 531.2C221.4 532.6 285.7 531.5 350 532C352.3 532 354 532.4 355.7 534.2C357.8 536.1 360.5 537.4 362.7 538.8Z" fill="#9A0505"/>
<path d="M404 60.4C388.4 52.9 372.9 53.3 357 59.5C357 50.1 356.9 40.7 357.1 31.2C357.1 30.2 358.1 28.6 359.1 28.2C362.7 26.6 366.4 24.5 370.2 24.3C377.8 23.8 385.5 22.9 393 25C395.7 25.7 398.3 26.9 400.8 28.2C403.2 29.5 404.1 31.9 404.1 34.5C404 43.2 404 51.8 404 60.4Z" fill="#E23434"/>
<path d="M404 526.6C388.4 519.9 373.1 520.1 357.3 525.6C357.2 524.9 357 523.8 357 522.8C357 516.5 357.2 510.1 356.9 503.8C356.8 500.6 358.1 499.1 360.7 497.7C364.6 495.6 368.9 494.9 373.1 494.5C382.1 493.6 391 493.8 399.3 498C402.5 499.6 403.9 502.2 403.9 505.5C404 512.5 404 519.5 404 526.6Z" fill="#E23434"/>
<path d="M17 112.8C17 109.9 16.9 107.4 17 105C17.1 102.7 18.5 101.4 20.8 101.1C21.5 101 22.1 101 22.8 101C49.8 101 76.7 101 103.7 101C104.7 101 105.6 101.1 106.9 101.2C106.6 105.7 104.4 109.1 102.5 112.8C74.1 112.8 45.9 112.8 17 112.8Z" fill="#9A0505"/>
<path d="M137 111C138.4 107.2 139.8 103.3 141.4 99.6C141.6 99.2 142.8 99.2 144.4 98.8C142.9 102.8 141.8 106 140.6 109.2C143.9 107.8 144.8 105 145.6 102.4C146.7 98.8 148.7 97.2 152.3 96.2C168.6 91.7 183 83.7 196.3 73.3C208.6 63.6 221.2 54.3 233.7 44.8C234.2 44.4 234.8 44.2 236.2 43.5C235.7 45.6 235.3 47 235 48.3C233.4 53.8 230.5 58 225.5 61.4C215.5 68.4 206 76.2 196.5 83.9C181.8 95.8 165.7 104.8 147.1 109C144.1 109.7 141 110.3 138 110.9C137.7 111.4 137.4 111.4 137 111Z" fill="#9A0505"/>
<path d="M271.9 35.7001C273.1 32.4001 274.2 29.5001 275.5 26.0001C278.8 25.7001 282.3 25.2001 285.9 24.9001C309.3 23.3001 332.7 24.1001 356.2 23.9001C357.9 23.9001 359.5 23.9001 361.9 23.9001C360.1 25.0001 358.8 25.6 357.7 26.6C356.4 27.8 354.9 29.1 354.4 30.6C354 31.9 354.9 33.7 355.2 35.6C327.4 35.7 300 35.7001 271.9 35.7001Z" fill="#9A0505"/>
<path d="M389.8 474.2C389.8 480.9 389.8 486.6 389.8 492.7C378.5 491.2 367.6 491.5 357 497.1C357 491.5 357 486.4 357 481.3C357 479.5 357.8 478.5 359.4 478C363 476.8 366.5 475.2 370.1 474.5C376.5 473.4 382.9 474 389.8 474.2Z" fill="#E23434"/>
<path d="M357.1 79.8999C357.1 73.9999 357.1 68.3999 357.1 62.4999C367.3 55.9999 378.3 56.5999 389.7 57.6999C389.7 63.8999 389.7 69.5999 389.7 75.7999C378.5 74.6999 367.6 74.5999 357.1 79.8999Z" fill="#E23434"/>
<path d="M380.3 523.5C384.9 524 389.5 524.2 394 525.1C396.5 525.6 399 526.9 401.2 528.2C403.6 529.6 403.7 532.1 401.4 533.9C400.4 534.7 399.2 535.4 398 535.8C386.6 540 375.1 539.9 363.5 536.6C361.8 536.1 360.1 535.2 358.7 534.2C356 532.3 356.3 529.7 359.2 527.9C363.5 525.2 368.3 524.1 373.3 524C375.6 524 378 524 380.3 524C380.3 523.8 380.3 523.7 380.3 523.5Z" fill="#9A0505"/>
<path d="M392.2 76.3C392.2 70.1 392.2 64.4 392.2 58C393.9 58.5 395.3 58.9 396.9 59.3C396.9 65.2 396.9 70.8 396.9 77C395.2 76.8 393.8 76.6 392.2 76.3Z" fill="#E23434"/>
<path d="M392.2 492.9C392.2 486.7 392.2 481 392.2 474.8C394 475.3 395.4 475.8 396.8 476.2C396.8 482.3 396.8 488.1 396.8 494.3C395.1 493.7 393.7 493.3 392.2 492.9Z" fill="#E23434"/>
<path d="M404 81.2C402 80.1 400.6 79.3 399.3 78.5C399.3 72.6 399.3 66.9 399.3 60.8C402.8 62.3 403.9 64.9 404 68C404.1 72.2 404 76.3 404 81.2Z" fill="#E23434"/>
<path d="M404 498.1C402.1 497 400.6 496.3 399.3 495.5C399.3 489.6 399.3 483.9 399.3 477.8C403 479.1 403.9 481.9 404 484.9C404.1 489 404 493.2 404 498.1Z" fill="#E23434"/>
<path d="M15.4 509.1C17.4 512.6 16.7 515.5 15.2 518.4C13.5 521.8 12 525.5 10.2 529.7C8.9 528 8.1 526.9 7.5 526.2C10.2 520.3 12.8 514.9 15.4 509.1Z" fill="#940505"/>
<path d="M235.2 53.7C236.7 49.7 238 45.5 239.9 41.7C240.7 40.2 242.7 39.3 244.9 38.5C243.5 42.4 242.5 46.5 240.7 50.2C239.9 51.9 237.6 52.9 236 54.1C235.7 54 235.4 53.8 235.2 53.7Z" fill="#900505"/>
<path d="M109.6 112.9C107.9 112.9 106.8 112.9 105.7 112.9C105.7 112.5 105.5 112.2 105.6 111.9C106.7 109.3 107.8 106.8 108.9 104.2C109.7 102.3 110.8 100.7 113.7 101.2C113.5 105.5 110.5 108.7 109.6 112.9Z" fill="#950505"/>
<path d="M13.5998 533.2C13.0998 532.3 11.9998 531.2 12.1998 530.7C13.8998 526.5 15.8998 522.4 18.2998 518.5C20.8998 524.3 15.9998 528.1 14.7998 532.9C14.3998 532.9 13.9998 533 13.5998 533.2Z" fill="#930505"/>
<path d="M112 112.2C113.3 109.2 114.6 106.2 115.9 103.2C116.7 101.3 117.8 100.7 120.3 101.7C118.8 105.2 117.5 108.7 115.8 112C115.4 112.8 113.7 112.9 112.6 113.3C112.5 112.9 112.3 112.6 112 112.2Z" fill="#950505"/>
<path d="M137 111C137.3 111 137.7 111 138 111C134.9 112.2 134.9 112.2 130.6 111.4C132.1 107.9 133.4 104.4 135.1 101.1C135.5 100.3 137.2 100.2 138.8 99.6C137.3 103.2 136.1 105.9 135 108.6C134.5 110.2 135.2 111.1 137 111Z" fill="#910505"/>
<path d="M117.9 113.7C123.2 101.4 123.2 101.4 126.6 101.7C125 105.3 123.7 108.7 122 112C121.5 112.8 119.9 112.9 117.9 113.7Z" fill="#930505"/>
<path d="M16.1997 534.8C17.9997 530.9 19.6997 527.4 21.2997 523.9C22.9997 524.6 24.1997 525.1 23.4997 526.9C22.3997 529.5 21.2997 532 20.1997 534.6C19.1997 536.9 17.8997 536.3 16.1997 534.8Z" fill="#910505"/>
<path d="M127.9 112.8C127.1 112.8 125.8 112.8 124.3 112.8C125.9 109.2 127.3 105.9 128.8 102.6C129.3 101.4 129.4 101.4 132.3 101.4C130.8 105.3 129.4 108.9 127.9 112.8Z" fill="#940505"/>
<path d="M244 47.4C245.2 44.2 246.4 41.1 247.5 37.9C248.2 36 249.6 35.3 252.2 35C249.8 39.9 249.5 45.2 244.9 48C244.6 47.8 244.3 47.6 244 47.4Z" fill="#8F0505"/>
<path d="M265.7 29.5C264.4 33.6 264 38.4 257.7 40.3C260.7 36.1 259.8 30.5 265.7 29.5Z" fill="#900505"/>
<path d="M25.8999 539.4C27.4999 536.1 28.5999 533.7 29.8999 531.4C30.2999 530.8 31.3999 530.6 32.0999 530.2C32.3999 530.9 33.0999 531.7 32.8999 532.3C32.0999 534.4 31.1999 536.6 29.8999 538.5C29.4999 539 27.9999 538.9 25.8999 539.4Z" fill="#950505"/>
<path d="M252.3 42.9C251.7 39.8 254 37.7 254.6 35.1C254.8 34.1 255.7 33.2 256.5 32.4C256.9 32 257.7 32.1 258.4 32C256.9 39.1 255.9 41 252.3 42.9Z" fill="#920505"/>
<path d="M265.9 36.5C267.8 33.1 267.3 28.4 272.4 26.7C270.7 35.5 270 36.6 265.9 36.5Z" fill="#8B0505"/>
<path d="M21.5 537.3C22.7 534.6 23.8 531.8 25 529.1C25.3 528.6 26.2 528.3 26.8 528C27.1 528.8 27.8 529.7 27.6 530.4C26.9 532.6 26 534.7 24.8 536.7C24.3 537.5 22.9 537.8 21.9 538.3C21.8 538 21.7 537.7 21.5 537.3Z" fill="#8E0505"/>
<path d="M40.2996 530.7C37.6996 534.2 37.6996 538.5 33.2996 540C33.0996 536.6 34.2996 534 35.9996 531.7C36.5996 531 38.2996 531.2 40.2996 530.7Z" fill="#900505"/>
<path d="M413 172.3C413 163 413 153.6 412.9 144.3C412.7 121.8 412.4 99.4 412.3 76.9C412.3 74 412.7 70.9 413.5 68.1C414.9 63.1 417.8 61.1 423 61C430.7 60.9 438.3 61 446 61C459 61 472 61.1 485 61C492.3 60.9 499 63.1 505.3 66.5C522.8 75.9 538.4 88 553.9 100.3C564.9 109.1 575.6 118.4 588.5 124.6C596.6 128.5 604.6 132.4 613.7 133.5C615.1 133.7 616.3 134.7 617.7 135.1C628.9 138.2 640.3 138.2 651.8 138.1C672.1 138 692.5 138 712.8 138C717.5 138 722.1 138.2 726.8 137.8C733.6 137.3 737.2 139.4 737.2 147.9C737 206.6 737.1 265.2 737.1 323.9C737.1 382.1 737.1 440.2 737.1 498.4C737.1 503 736.5 507.3 734.4 511.4C731.1 517.8 725.9 520.9 718.8 520.9C619 520.9 519.2 521 419.4 521C418.9 521 418.4 521 417.9 521C414.6 520.9 414.4 520.6 414.3 517.1C414.3 516.4 414.3 515.8 414.3 515.1C414.2 465.8 414.2 416.5 414.1 367.1" fill="#050505"/>
<path d="M184.3 130C228.8 130 273.3 130 317.8 130C325.6 130 329.8 134 330 141.8C330 143 330 144.1 330 145.3C330 216.6 330 287.9 330 359.2C330 360.9 330 362.5 329.9 364.2C329.4 370.5 325.2 374.6 318.9 374.9C317.4 375 315.9 375 314.4 375C239.1 375 163.8 375 88.4999 375.1C85.0999 375.1 82.6999 374.3 80.1999 371.8C68.0999 359.4 55.7999 347.2 43.3999 335.1C40.8999 332.7 39.8999 330.3 39.8999 326.9C39.9999 266.4 39.9999 205.9 39.9999 145.5C39.9999 144 39.9999 142.5 39.9999 141C39.7999 134 43.3999 130.1 50.3999 130.1C94.9999 130 139.7 130 184.3 130Z" fill="#AFAFAF" stroke="black" stroke-miterlimit="10"/>
<path d="M322.2 377C319.5 379.2 317 380 314.1 380C237.8 380 161.5 380 85.1996 380C82.6996 380 80.8996 379.3 79.0996 377.5C64.8996 363.2 50.6996 348.9 36.3996 334.7C34.6996 333 34.0996 331.3 34.0996 329C34.1996 268.3 34.0996 207.7 34.1996 147C34.1996 142.8 35.3996 138.9 38.0996 134.7C38.0996 149.9 38.1996 164.4 38.1996 178.9C38.1996 193.7 38.1996 208.6 38.1996 223.4C38.1996 238.1 38.1996 252.7 38.1996 267.4C38.1996 287.7 38.2996 308.1 38.0996 328.4C38.0996 331.3 38.8996 333.3 40.8996 335.4C53.7996 348.1 66.6996 361 79.4996 373.9C81.7996 376.3 84.1996 377 87.3996 377C164.4 376.9 241.4 376.9 318.3 376.9C319.3 377 320.5 377 322.2 377Z" fill="#656565"/>
<path d="M279.3 427.1C278.9 423.1 278.6 419.8 278.3 416.6C278.2 415.1 278.1 413.6 278 412.1C277.7 408.7 277.4 405.2 277.1 401.8C277 400.5 276.8 399.1 277.2 397.8C277.6 396.2 278.4 394.9 280.6 394.9C285.9 395.1 291.3 394.9 296.6 395C299.3 395.1 300.2 395.8 300 398.7C299.6 404.9 298.9 411.2 298.4 417.4C298.2 420.3 298.4 423.3 298.4 426.8C300.5 426.8 302.6 426.9 304.7 426.8C308 426.6 311.3 426.2 314.5 425.9C317.8 425.6 321 425.1 324.3 425C328.9 424.8 330 426 330 430.4C330.1 434.4 330.1 438.4 330 442.4C329.9 446.7 327.9 447.9 323.7 447.5C315.7 446.7 307.6 446.4 299.5 445.9C298 456 300.5 465.5 300 475.8C298.3 476.2 296.5 477 294.7 477C290.2 477.2 285.7 477.1 281.2 477C277.6 477 276.9 476.4 277.1 473C277.6 466.9 278.4 460.9 278.9 454.8C279.1 452 278.9 449.2 278.9 446C274.5 446.1 270.5 445.5 266.4 446.6C264.7 447.1 262.8 446.7 260.9 446.9C258 447.1 255 447.4 252.1 447.8C249.3 448.2 247.1 446.7 247.1 443.8C246.9 438.8 247 433.8 247.1 428.8C247.2 426.3 248.7 425 251.3 424.9C253.3 424.9 255.2 425.2 257.2 425.4C264.2 426 271.2 426.5 279.3 427.1Z" fill="#056565" stroke="black" stroke-miterlimit="10"/>
<path d="M149.6 501C132 501 114.3 501 96.6999 501C91.8999 501 89.8999 498.9 89.8999 494C89.9999 480.4 89.9999 466.7 89.8999 453.1C89.8999 448.8 91.6999 446.6 95.7999 446.1C97.0999 445.9 98.4999 446 99.7999 446C132.9 446 166 446 199.2 446C200.5 446 201.9 446 203.2 446.1C206.4 446.4 208.5 448 209.2 451.1C209.6 452.9 210 454.7 210 456.5C210.1 468.2 210.1 479.8 210 491.5C210 493.1 209.6 494.8 209.1 496.3C208 499.8 206.2 501 202.5 501C184.9 501 167.2 501 149.6 501Z" fill="#FAFA05" stroke="black" stroke-miterlimit="10"/>
<path d="M64.8997 384.7C75.2997 384.6 83.8997 392.7 83.9997 402.9C84.0997 413.7 75.9997 421.6 65.4997 422.4C54.3997 423.2 45.6997 413.1 45.7997 404.3C45.9997 392.6 53.0997 384.9 64.8997 384.7Z" fill="#307AFA" stroke="#231F20" stroke-miterlimit="10"/>
<path d="M200.1 399C206.8 399 213.4 398.9 220.1 399C224 399 225.9 400.7 226.2 404.1C226.5 407.1 225.5 408.9 222.7 410C221 410.6 219.2 411 217.4 411C205.7 411.1 194.1 411.1 182.4 411C180.6 411 178.8 410.6 177.1 410C174.2 408.9 173.2 406.6 173.8 403.5C174.3 400.8 176.1 399.2 179 399.1C186.1 398.9 193.1 399 200.1 399Z" fill="#FA6505" stroke="#231F20" stroke-miterlimit="10"/>
<path d="M128.6 411C122.9 411 117.3 411.1 111.6 411C109.7 411 107.6 410.6 105.8 410C103.1 409.1 101.6 406.3 102 403.7C102.4 401.2 104.8 399.1 107.6 399C121.6 398.9 135.5 398.9 149.5 399C152.4 399 154.7 401.1 155 403.7C155.4 406.5 154.1 409 151.3 409.9C149.6 410.5 147.8 410.8 146 410.9C140.2 411.1 134.4 411 128.6 411Z" fill="#50FA05" stroke="#231F20" stroke-miterlimit="10"/>
<path d="M70.5996 87.4C52.8996 88.4 31.0996 72.4 31.1996 47.6C31.2996 27.4 47.7996 8.09997 71.0996 8.19997C94.3996 8.29997 110.8 27.7 110.8 47.9C110.8 72.4 88.8996 88.7 70.5996 87.4Z" fill="#FAFAFA" stroke="black" stroke-miterlimit="10"/>
<path d="M187.3 11.8C193.4 11.8 196.2 14.6 196.2 20.5C196.2 25.9 192.5 29.9001 187.5 29.9001C182.8 29.9001 178.3 25.5001 178.2 20.7001C178 15.9001 182.2 11.8 187.3 11.8Z" fill="#4FF905" stroke="black" stroke-miterlimit="10"/>
<path d="M124.6 11.8C130.3 11.8 133.9 15 133.9 20.4C134 25.6 129.9 29.9 124.6 29.9C119.7 29.9 116 25.8 115.6 20.7C115.4 16.1 119.6 10.9 124.6 11.8Z" fill="#F90505" stroke="black" stroke-miterlimit="10"/>
<path d="M156 11.7C161.7 11.7 165.1 15 165.2 20.5C165.2 25.7 161.3 29.7999 156.2 29.7999C151.3 29.8999 147 25.6 146.9 20.7C146.8 15.5 150.6 11.7 156 11.7Z" fill="#F9F905" stroke="black" stroke-miterlimit="10"/>
<path d="M414.9 72C417 72 418.6 72 420.2 72C438.4 72 456.5 72.2 474.7 71.9C482.6 71.8 490 73.5 496.6 77.5C506.8 83.7 516.9 90.2 526.5 97.2C537.9 105.5 548.6 114.8 559.8 123.3C575.7 135.5 593.7 143.2 613.4 147C624.4 149.1 635.6 149.6 646.7 148.8C668.3 147.3 689.9 148.3 711.6 148C714.7 148 717.9 148.3 721 148.8C725.2 149.4 726.2 150.8 726.2 155.2C726.2 271.5 726.2 387.8 726.1 504.2C726.1 507.7 726 511.2 725.3 514.6C724.6 518.3 723.6 518.8 719.8 519C717 519.1 714.1 519.1 711.3 519.1C614.3 519.1 517.3 519.1 420.3 519.1C419.1 519.1 418 519.1 416.2 519.1C416.2 517.3 416.2 515.7 416.2 514.1C416.1 483.3 416 452.4 416 421.6C415.9 382.4 416 343.3 415.8 304.1C415.6 239.1 415.2 174.2 415 109.2C414.9 97 414.9 84.8 414.9 72Z" fill="#F23838"/>
<path d="M728 515.1C728 510.3 728 506.2 728 502C728 393.2 728.1 284.4 727.9 175.6C727.9 168.1 729.9 161.7 734 154.5C734 157.2 734 158.9 734 160.6C734 271.7 734 382.8 734 494C734 497.3 734.1 500.7 733.9 504C733.7 508.2 732.3 512 728 515.1Z" fill="#9A0505"/>
<path d="M583.7 125.3C582.5 128.1 581.5 130.5 580.3 133.1C575.5 131.9 571.7 129.3 568.1 126.5C554.8 116.4 541.7 106.1 528.4 95.9C523.8 92.4 519 89.1 514.1 86C512 84.7 511.4 83.3 512.3 81.1C513.1 79.2 513.9 77.2 514.7 75C522.9 79.5 529.8 85.1 536.8 90.5C547.9 99.1 558.9 108 570 116.5C574.4 119.8 579.1 122.3 583.7 125.3Z" fill="#9A0505"/>
<path d="M613.6 137C615 137.1 616.3 137.1 617.6 137.4C624.7 139.3 631.8 140.1 639.1 140.1C664.9 140 690.7 140.1 716.5 140C718.1 140 719.8 140 721.6 140C721.3 141 721.1 141.6 720.9 142.2C720 145.2 718.1 146.1 715 146.1C697.3 145.9 679.7 145.9 662 146.1C651.7 146.2 641.5 147 631.2 146.9C625.5 146.9 619.7 145.8 614 144.9C610.7 144.4 610.4 143.6 611.7 140.6C612.3 139.5 612.9 138.3 613.6 137Z" fill="#9A0505"/>
<path d="M483.3 63.8C482.5 65.7 481.7 67.6 480.8 69.7C459.4 69.7 437.9 69.7 416.5 69.7C417.5 65.2 419.5 63 423.6 63C443.1 62.9 462.6 63 482.1 63C482.3 63.1 482.5 63.4 483.3 63.8Z" fill="#9A0505"/>
<path d="M507.6 70.2C506.7 73.5 505.7 76.5 503.3 79.3C502.1 78.4 501.2 77.7 500.1 76.8C501.2 74.1 502.3 71.5 503.5 68.6C505.2 69.3 506.4 69.7 507.6 70.2Z" fill="#950505"/>
<path d="M505.8 80.7C507.3 77.4 508.4 74.8 509.8 71.9C510.9 72.4 511.9 72.9 513.1 73.4C511.8 76.5 510.7 79.2 509.4 82.4C508.2 81.7 507.1 81.2 505.8 80.7Z" fill="#920505"/>
<path d="M498 65.7C499.6 66.4 500.4 66.8 501.7 67.3C500.5 70.1 499.4 72.9 498.1 75.8C495.9 75.1 494.2 74.6 495.4 72.1C496.3 70.1 497 68.2 498 65.7Z" fill="#950505"/>
<path d="M483.3 69.6C484 67.4 484.7 65.4 485.5 63.2C486.9 63.2 488.3 63.2 490.3 63.2C489.2 65.8 488.5 68.1 487.2 70.1C486.2 71.7 484.7 71.2 483.3 69.6Z" fill="#890505"/>
<path d="M492.5 73.4C491 72.8 490.3 72.5 489 72C490.1 69.4 491.1 66.9 492.4 64.5C492.6 64.1 494.3 64.4 496.1 64.4C494.8 67.8 493.7 70.4 492.5 73.4Z" fill="#940505"/>
<path d="M584.8 135.8C583.9 135.3 583.2 135 582.2 134.5C583.4 131.7 584.6 129 585.9 126.1C588.7 128.9 588.7 128.9 584.8 135.8Z" fill="#8C0505"/>
<path d="M728.4 159.6C727.9 154 731.6 150 733.6 145.4C734.4 151.1 730.4 155 728.4 159.6Z" fill="#8B0505"/>
<path d="M732.7 141.3C731.1 144.7 729.8 147.7 728.3 150.9C726.7 150 726.1 148.9 727 147C728.1 144.8 729.2 142.6 730.3 140.2C731.1 140.6 731.8 140.9 732.7 141.3Z" fill="#860505"/>
<path d="M589.9 137.9C589 137.5 588.3 137.1 587.7 136.8C587.7 136.4 587.6 136.1 587.7 135.9C588.5 134 589.2 132 590.2 130.1C590.5 129.6 591.5 129.5 592.1 129.2C592.4 129.9 593.1 130.7 592.9 131.2C592 133.4 590.9 135.5 589.9 137.9Z" fill="#8F0505"/>
<path d="M721.9 146.3C723.9 140.2 723.9 140.2 727.5 140.4C725 146.8 725 146.8 721.9 146.3Z" fill="#920505"/>
<path d="M607.1 144.5C605.4 140.3 607.8 138 609.1 135C609.8 135.6 610.6 136 610.6 136.4C610.6 139.1 609.4 141.5 607.1 144.5Z" fill="#870505"/>
<path d="M601 141.2C602.2 138.8 603.4 136.4 604.8 133.4C607.1 136.7 605.1 138.7 604.1 140.7C603.7 141.4 602.7 141.8 601.9 142.3C601.6 141.9 601.3 141.6 601 141.2Z" fill="#950505"/>
<path d="M598.4 141.2C595.9 139.5 597.5 138.1 598 137C598.6 135.6 599.5 134.3 600.4 133C600.5 132.9 601.3 133.2 602.2 133.4C600.9 136.1 599.6 138.6 598.4 141.2Z" fill="#8F0505"/>
<path d="M596.8 131.5C596.2 134.5 596.4 137.8 592.5 139.6C593.8 133.5 594 133.3 596.8 131.5Z" fill="#8F0505"/>
<path d="M223.3 364.9C224.7 361.8 227 362.3 229.1 362.3C243.7 362.3 258.3 362.3 273 362.3C278.8 362.3 284.6 362.3 290.4 362.3C291.9 362.3 293.4 362.5 294.7 363C295.3 363.2 295.5 364.4 296.4 366C272.1 366 248.5 366 225 366C224.6 365.9 224 365.3 223.3 364.9Z" fill="#101010"/>
<path d="M223.2 338.4C224.2 337.3 224.7 336.4 225.4 336.1C226.3 335.8 227.4 335.9 228.4 335.9C249.4 335.9 270.3 335.9 291.3 335.9C292.5 335.9 293.7 335.8 294.7 336.2C295.3 336.4 295.6 337.5 296.2 338.3C292.1 339.3 228.9 339.5 223.2 338.4Z" fill="#050505"/>
<path d="M223.6 346.9C224.2 346.3 224.6 345.4 225.4 345.1C226.3 344.8 227.4 344.9 228.4 344.9C249.4 344.9 270.3 344.9 291.3 344.9C292.5 344.9 293.7 344.8 294.7 345.2C295.3 345.4 295.6 346.5 296.5 347.8C271.9 347.8 248.1 347.8 224.2 347.8C224 347.5 223.8 347.2 223.6 346.9Z" fill="#050505"/>
<path d="M223.4 356.7C224.1 355.5 224.4 354.3 225.1 354.1C226.1 353.7 227.4 353.8 228.5 353.8C249.3 353.8 270.1 353.8 290.9 353.8C292.2 353.8 293.6 353.8 294.9 354.1C295.3 354.2 295.9 355.1 295.9 355.5C295.9 356 295.3 356.7 294.8 356.8C293.9 357 292.8 357 291.8 357C270.5 357 249.2 357 227.9 357C226.6 357.1 225.3 356.9 223.4 356.7Z" fill="#050505"/>
<path d="M191.9 16.1C191.9 18 190.5 19 188.5 19C186.4 19 184.8 17.9 185.1 16.4C185.5 14.5 187.2 14.2 188.8 14C190.6 13.9 191.6 14.8 191.9 16.1Z" fill="#A5FA6D"/>
<path d="M123.1 15.7C126.5 13.8 128.2 13.7 128.9 15.6C129.4 17.1 128.7 18.2 127.3 18.8C125.2 19.7 123.9 18.6 123.1 15.7Z" fill="#FA7373"/>
<path d="M161.3 17C159.5 17.8 158.1 18.7 156.6 18.9C155.8 19 154.5 17.8 154.2 17C154 16.4 155.2 15.2 156 14.6C158.1 13.2 159.4 14.6 161.3 17Z" fill="#FAFA8F"/>
<path d="M185 150C224.2 150 263.3 150 302.5 150C310.8 150 315 154.1 315.1 162.5C315.1 212.3 315.1 262.1 315.1 311.9C315.1 316 314.3 319.8 310.9 322.6C309 324.1 307 325.1 304.5 324.9C303.8 324.8 303.2 324.9 302.5 324.9C224.2 324.9 145.9 324.9 67.5996 324.9C65.4996 324.9 63.1996 324.7 61.2996 323.9C57.5996 322.4 55.7996 319.2 55.2996 315.3C55.0996 313.7 55.0996 312 55.0996 310.3C55.0996 261.5 55.0996 212.7 55.0996 163.9C55.0996 160.2 55.2996 156.6 57.7996 153.6C59.6996 151.3 61.9996 149.9 65.0996 149.9C67.3996 149.9 69.7996 149.9 72.0996 149.9C109.7 150 147.3 150 185 150Z" fill="#FAFAFA" stroke="black" stroke-miterlimit="10"/>
<path d="M102.9 337.9C110.3 337.9 115.2 342.5 115.3 349.7C115.4 357.1 110.7 361.8 103.6 362.3C95.8999 362.8 90.7999 356.1 90.8999 350.1C91.0999 342.8 95.5999 337.9 102.9 337.9Z" fill="#FA0505" stroke="black" stroke-miterlimit="10"/>
<path d="M168.2 139.1C168.3 141.3 167.2 142.8 165.2 142.9C163.3 143.1 161.1 141.2 161.1 139.4C161.1 137.7 162.7 136.1 164.6 135.9C166.9 135.9 168.1 136.9 168.2 139.1Z" fill="#F00505" stroke="black" stroke-miterlimit="10"/>
<path d="M189 140.2C189.1 141.9 187.4 143.8 185.7 144C184 144.2 182.1 142.6 182 140.8C181.8 138.4 183 137.1 185.4 137C187.4 137 188.8 138.2 189 140.2Z" fill="#F40505" stroke="black" stroke-miterlimit="10"/>
<path d="M287.2 445.4C282.6 445.3 278.5 441.5 278.6 437.4C278.7 432.9 283 428.7 287.4 428.7C292.8 428.7 296.5 432.4 296.5 437.6C296.4 442.3 292.5 445.6 287.2 445.4Z" fill="#057979" stroke="black" stroke-miterlimit="10"/>
<path d="M73.3997 13.9C90.6997 12.6 104.2 30.3 104.3 43.9C104.4 61.7 88.3997 76.2 73.1997 75.5C55.6997 74.7 42.2997 62 42.1997 44.5C42.0997 27.6 56.8997 12.7 73.3997 13.9Z" fill="#05FAFA" stroke="black" stroke-miterlimit="10"/>
<path d="M568.7 429C532.4 429 496.1 429 459.8 429C458.5 429 457.1 429.1 455.8 429C451.1 428.3 449 422.8 449 411.7C449 334.2 449 256.6 449 179.1C449 169.8 450.9 164.4 454.8 163.3C456.1 162.9 457.5 163.1 458.8 163.1C532.1 163.1 605.4 163.1 678.7 163.1C679.7 163.1 680.7 163 681.7 163.2C686 163.7 688.7 169.9 689.1 180.1C689.2 182.1 689.1 184.1 689.1 186C689.1 259.2 689.1 332.4 689.1 405.6C689.1 408 689.2 410.4 689 412.7C688.5 422.3 685.8 428.3 681.7 429C680.4 429.2 679 429.1 677.7 429.1C641.3 429 605 429 568.7 429Z" fill="#70EF52" stroke="black" stroke-miterlimit="10"/>
<path d="M632.6 453C647.6 453 662.6 453.1 677.5 452.9C682.2 452.8 684.2 453.9 684.1 459.6C683.8 470.2 684 480.9 684 491.5C684 497.9 683 498.9 676.4 498.9C663.8 498.9 651.1 498.9 638.5 498.9C622.2 498.9 605.9 498.9 589.6 498.9C588.3 498.9 586.9 499 585.6 498.8C582.7 498.4 581 496.4 581 493.4C581 481.8 581 470.1 581 458.5C581 454.1 582.2 453 586.7 452.9C602 453 617.3 453 632.6 453Z" fill="#FA9A05" stroke="black" stroke-miterlimit="10"/>
<path d="M506.1 453C521.1 453 536.1 453 551.1 453C556.6 453 558 454.1 558 459.6C558.1 470.4 558.1 481.3 558 492.1C558 497.1 556.1 499 551 499C521 499 491 499 461.1 499C456.1 499 454.1 497.1 454.1 492.1C454 481.3 454 470.4 454.1 459.6C454.1 454.7 455.9 453 460.7 453C475.8 453 490.9 453 506.1 453Z" fill="#FA9A05" stroke="black" stroke-miterlimit="10"/>
<path d="M64.8 34.8999C63.1 34.8999 61.5 35.0999 59.8 34.8999C56.9 34.5999 55.4 32.2999 56.2 29.5999C58.5 21.9999 69.6 16.2999 77.2 18.8999C80.4 19.9999 82.1 22.2999 83 25.1999C84 28.5999 83 30.2999 79.8 32.0999C76.6 33.6999 70.3 34.8999 64.8 34.8999Z" fill="#9AFACF"/>
</svg>
